<svg width="228" height="189" viewBox="0 0 228 189" fill="none" xmlns="http://www.w3.org/2000/svg">
<path d="M0 0H198C214.569 0 228 13.4315 228 30V189H30C13.4315 189 0 175.569 0 159V0Z" fill="#2D2D2D"/>
<path d="M69.207 118.031C68.3867 118.547 67.6367 118.992 66.957 119.367C66.2773 119.719 65.5977 120 64.918 120.211C64.2383 120.445 63.5352 120.609 62.8086 120.703C62.082 120.82 61.2852 120.879 60.418 120.879C58.2383 120.879 56.2812 120.586 54.5469 120C52.8359 119.391 51.3828 118.57 50.1875 117.539C49.0156 116.484 48.1133 115.254 47.4805 113.848C46.8477 112.418 46.5312 110.871 46.5312 109.207C46.5312 107.52 46.8477 105.961 47.4805 104.531C48.1367 103.102 49.0742 101.883 50.293 100.875C51.5117 99.8438 53 99.0469 54.7578 98.4844C56.5391 97.8984 58.5664 97.6055 60.8398 97.6055C62.5039 97.6055 64.0156 97.6992 65.375 97.8867C66.7578 98.0508 68.0352 98.2617 69.207 98.5195V97.3945C69.207 96.4805 69.0312 95.6953 68.6797 95.0391C68.3281 94.3594 67.8359 93.8086 67.2031 93.3867C66.5703 92.9414 65.8086 92.625 64.918 92.4375C64.0273 92.2266 63.0547 92.1211 62 92.1211C59.7969 92.1211 57.8516 92.3438 56.1641 92.7891C54.5 93.2109 52.8945 93.832 51.3477 94.6523L47.9727 87.832C50.3633 86.1914 52.8594 84.9375 55.4609 84.0703C58.0859 83.2031 60.8633 82.7695 63.793 82.7695C66.0664 82.7695 68.1641 83.0273 70.0859 83.543C72.0312 84.0352 73.6953 84.8555 75.0781 86.0039C76.4609 87.1289 77.5391 88.6055 78.3125 90.4336C79.1094 92.2617 79.5078 94.4883 79.5078 97.1133V110.367H84.3945V120H69.207V118.031ZM61.1914 112.582C62.8555 112.582 64.3672 112.312 65.7266 111.773C67.0859 111.234 68.2461 110.578 69.207 109.805V105.164H60.7695C60.2305 105.164 59.7031 105.246 59.1875 105.41C58.6719 105.574 58.2031 105.809 57.7812 106.113C57.3828 106.418 57.0547 106.793 56.7969 107.238C56.5625 107.684 56.4453 108.199 56.4453 108.785C56.4453 109.863 56.832 110.766 57.6055 111.492C58.4023 112.219 59.5977 112.582 61.1914 112.582ZM91.8828 83.5781H108.547V86.7422C110.047 85.5469 111.734 84.5977 113.609 83.8945C115.484 83.1914 117.418 82.8398 119.41 82.8398C122.176 82.8398 124.543 83.332 126.512 84.3164C128.504 85.2773 130.062 86.7539 131.188 88.7461C131.961 87.8789 132.828 87.0938 133.789 86.3906C134.773 85.6641 135.816 85.043 136.918 84.5273C138.02 83.9883 139.168 83.5781 140.363 83.2969C141.582 82.9922 142.824 82.8398 144.09 82.8398C148.543 82.8398 151.965 84.0703 154.355 86.5312C156.746 88.9922 157.941 92.5898 157.941 97.3242V110.367H163.109V120H146.48V99.1172C146.48 97.0547 145.941 95.4375 144.863 94.2656C143.809 93.0938 142.332 92.5078 140.434 92.5078C139.121 92.5078 137.879 92.8242 136.707 93.457C135.559 94.0664 134.41 95.1328 133.262 96.6562C133.285 96.9141 133.297 97.1836 133.297 97.4648C133.297 97.7227 133.297 97.9922 133.297 98.2734V110.367H138.57V120H121.941V99.0469C121.941 98.0625 121.789 97.1719 121.484 96.375C121.18 95.5781 120.758 94.8984 120.219 94.3359C119.68 93.7734 119.035 93.3398 118.285 93.0352C117.559 92.707 116.75 92.5312 115.859 92.5078C114.688 92.4844 113.469 92.7422 112.203 93.2812C110.961 93.8203 109.766 94.8164 108.617 96.2695V110.367H114.453V120H91.8125V110.367H97.2266V93.2109H91.8828V83.5781Z" fill="white"/>
<path d="M167.258 114.305C167.258 113.367 167.422 112.488 167.75 111.668C168.102 110.848 168.582 110.121 169.191 109.488C169.824 108.855 170.562 108.363 171.406 108.012C172.25 107.637 173.152 107.449 174.113 107.449C175.027 107.449 175.895 107.637 176.715 108.012C177.559 108.363 178.285 108.855 178.895 109.488C179.527 110.098 180.02 110.824 180.371 111.668C180.723 112.512 180.898 113.391 180.898 114.305C180.898 115.242 180.711 116.133 180.336 116.977C179.984 117.82 179.504 118.547 178.895 119.156C178.285 119.766 177.57 120.246 176.75 120.598C175.93 120.973 175.051 121.16 174.113 121.16C173.129 121.16 172.215 120.973 171.371 120.598C170.551 120.246 169.824 119.766 169.191 119.156C168.582 118.547 168.102 117.832 167.75 117.012C167.422 116.168 167.258 115.266 167.258 114.305Z" fill="#E66EBA"/>
</svg>
