<?xml version="1.0" encoding="UTF-8"?>
<svg width="58px" height="96px" viewBox="0 0 58 96" version="1.1" xmlns="http://www.w3.org/2000/svg" xmlns:xlink="http://www.w3.org/1999/xlink">
    <title>icon</title>
    <g id="Page-1" stroke="none" stroke-width="1" fill="none" fill-rule="evenodd">
        <g id="icon" transform="translate(-141.000000, -21.000000)">
            <g transform="translate(141.000000, 21.000000)">
                <path d="M8.5,72.5 L39.9482019,72.5 L45.5,72.5 C47.1568542,72.5 48.5,73.8431458 48.5,75.5 C48.5,77.1568542 47.1568542,78.5 45.5,78.5 L8.5,78.5 L8.5,78.5 L8.5,72.5 Z" id="Rectangle" fill="#EA9E72" transform="translate(28.500000, 75.500000) rotate(90.000000) translate(-28.500000, -75.500000) "></path>
                <path d="M29,1.5 C21.4060847,1.5 14.5310847,4.57804235 9.55456352,9.55456352 C4.57804235,14.5310847 1.5,21.4060847 1.5,29 C1.5,36.5939153 4.57804235,43.4689153 9.55456352,48.4454365 C14.5310847,53.4219577 21.4060847,56.5 29,56.5 C36.5939153,56.5 43.4689153,53.4219577 48.4454365,48.4454365 C53.4219577,43.4689153 56.5,36.5939153 56.5,29 C56.5,24.9932563 55.643581,21.1865076 54.1029207,17.7532875 C53.068103,15.447291 51.7247812,13.3098204 50.1256385,11.3932654 C45.0810281,5.34735507 37.4898777,1.5 29,1.5 Z" id="Oval" stroke="#979797" stroke-width="3"></path>
                <circle id="Oval" fill="#F668B3" cx="27" cy="27" r="24"></circle>
                <circle id="Oval" fill="#F8931A" cx="24" cy="24" r="20"></circle>
                <circle id="Oval" fill="#F6FF03" cx="20" cy="20" r="15"></circle>
                <circle id="Oval" fill="#E8EDBA" cx="16" cy="17" r="10"></circle>
                <text id="a" font-family="Montserrat-Bold, Montserrat" font-size="16" font-weight="bold" fill="#7D7D7D">
                    <tspan x="11" y="20">a</tspan>
                </text>
            </g>
        </g>
    </g>
</svg>