<svg width="38" height="38" viewBox="0 0 38 38" fill="none" xmlns="http://www.w3.org/2000/svg">
<g clip-path="url(#clip0)">
<path d="M37.9905 38V37.9984H38V24.0619C38 17.244 36.5323 11.9921 28.5618 11.9921C24.7301 11.9921 22.1588 14.0948 21.109 16.0882H20.9982V12.6286H13.4409V37.9984H21.3101V25.4362C21.3101 22.1286 21.9371 18.9303 26.0332 18.9303C30.0691 18.9303 30.1293 22.705 30.1293 25.6484V38H37.9905Z" fill="#BFBFBF"/>
<path d="M0.626999 12.6302H8.50567V38H0.626999V12.6302Z" fill="#BFBFBF"/>
<path d="M4.56317 0C2.04408 0 0 2.04408 0 4.56317C0 7.08225 2.04408 9.16908 4.56317 9.16908C7.08225 9.16908 9.12633 7.08225 9.12633 4.56317C9.12475 2.04408 7.08067 0 4.56317 0V0Z" fill="#E66EBA"/>
</g>
<defs>
<clipPath id="clip0">
<rect width="38" height="38" fill="white"/>
</clipPath>
</defs>
</svg>
