<svg width="38" height="38" viewBox="0 0 38 38" fill="none" xmlns="http://www.w3.org/2000/svg">
<g clip-path="url(#clip0)">
<path d="M37.9628 11.1721C37.8738 9.15302 37.5473 7.76491 37.0795 6.5621C36.597 5.28535 35.8547 4.14227 34.8821 3.19203C33.9319 2.227 32.7813 1.47713 31.5193 1.00215C30.3095 0.534421 28.9287 0.207911 26.9096 0.118889C24.8754 0.022328 24.2297 0 19.0704 0C13.9112 0 13.2655 0.022328 11.2388 0.11135C9.21976 0.200372 7.83165 0.527172 6.62913 0.99461C5.35209 1.47713 4.20901 2.21946 3.25877 3.19203C2.29374 4.14227 1.54416 5.29289 1.06889 6.55485C0.601163 7.76491 0.274653 9.14548 0.185631 11.1646C0.0890699 13.1987 0.0667419 13.8445 0.0667419 19.0037C0.0667419 24.1629 0.0890699 24.8087 0.178092 26.8353C0.267114 28.8544 0.593914 30.2425 1.06164 31.4453C1.54416 32.7221 2.29374 33.8652 3.25877 34.8154C4.20901 35.7804 5.35963 36.5303 6.62159 37.0053C7.83165 37.473 9.21222 37.7995 11.2316 37.8885C13.2579 37.9778 13.904 37.9999 19.0632 37.9999C24.2224 37.9999 24.8682 37.9778 26.8948 37.8885C28.9139 37.7995 30.302 37.473 31.5045 37.0053C34.0583 36.0179 36.0774 33.9988 37.0648 31.4453C37.5322 30.2353 37.859 28.8544 37.948 26.8353C38.037 24.8087 38.0594 24.1629 38.0594 19.0037C38.0594 13.8445 38.0518 13.1987 37.9628 11.1721ZM34.5408 26.6869C34.4591 28.5427 34.1473 29.5448 33.8875 30.2129C33.249 31.8684 31.9351 33.1823 30.2797 33.8208C29.6116 34.0806 28.6022 34.3923 26.7536 34.4738C24.7493 34.5631 24.1482 34.5852 19.078 34.5852C14.0078 34.5852 13.3991 34.5631 11.4021 34.4738C9.54627 34.3923 8.54412 34.0806 7.87602 33.8208C7.05221 33.5163 6.30233 33.0338 5.69368 32.4028C5.0627 31.7866 4.58018 31.0443 4.27571 30.2205C4.01589 29.5524 3.70417 28.5427 3.62269 26.6944C3.53338 24.6901 3.51134 24.0887 3.51134 19.0185C3.51134 13.9483 3.53338 13.3397 3.62269 11.3429C3.70417 9.48707 4.01589 8.48492 4.27571 7.81682C4.58018 6.99271 5.0627 6.24313 5.70122 5.63419C6.31712 5.0032 7.05945 4.52069 7.88356 4.21651C8.55166 3.95669 9.56135 3.64497 11.4096 3.5632C13.4139 3.47417 14.0153 3.45185 19.0852 3.45185C24.163 3.45185 24.7641 3.47417 26.7611 3.5632C28.617 3.64497 29.6191 3.95669 30.2872 4.21651C31.111 4.52069 31.8609 5.0032 32.4695 5.63419C33.1005 6.25038 33.583 6.99271 33.8875 7.81682C34.1473 8.48492 34.4591 9.49432 34.5408 11.3429C34.6299 13.3472 34.6522 13.9483 34.6522 19.0185C34.6522 24.0887 34.6299 24.6826 34.5408 26.6869Z" fill="#BFBFBF"/>
<path d="M19.0705 9.24203C13.6813 9.24203 9.30878 13.6143 9.30878 19.0037C9.30878 24.3932 13.6813 28.7654 19.0705 28.7654C24.4599 28.7654 28.8321 24.3932 28.8321 19.0037C28.8321 13.6143 24.4599 9.24203 19.0705 9.24203ZM19.0705 25.3359C15.5742 25.3359 12.7383 22.5002 12.7383 19.0037C12.7383 15.5072 15.5742 12.6716 19.0705 12.6716C22.567 12.6716 25.4026 15.5072 25.4026 19.0037C25.4026 22.5002 22.567 25.3359 19.0705 25.3359V25.3359Z" fill="#BFBFBF"/>
<path d="M31.4973 8.85608C31.4973 10.1146 30.4769 11.135 29.2181 11.135C27.9596 11.135 26.9392 10.1146 26.9392 8.85608C26.9392 7.59731 27.9596 6.57718 29.2181 6.57718C30.4769 6.57718 31.4973 7.59731 31.4973 8.85608V8.85608Z" fill="#E66EBA"/>
</g>
<defs>
<clipPath id="clip0">
<rect width="38" height="38" fill="white"/>
</clipPath>
</defs>
</svg>
