<svg width="283" height="74" viewBox="0 0 283 74" fill="none" xmlns="http://www.w3.org/2000/svg">
<path d="M0.28125 64.4062C0.28125 63.1562 0.5 61.9844 0.9375 60.8906C1.40625 59.7969 2.04688 58.8281 2.85938 57.9844C3.70312 57.1406 4.6875 56.4844 5.8125 56.0156C6.9375 55.5156 8.14062 55.2656 9.42188 55.2656C10.6406 55.2656 11.7969 55.5156 12.8906 56.0156C14.0156 56.4844 14.9844 57.1406 15.7969 57.9844C16.6406 58.7969 17.2969 59.7656 17.7656 60.8906C18.2344 62.0156 18.4688 63.1875 18.4688 64.4062C18.4688 65.6562 18.2188 66.8438 17.7188 67.9688C17.25 69.0938 16.6094 70.0625 15.7969 70.875C14.9844 71.6875 14.0312 72.3281 12.9375 72.7969C11.8438 73.2969 10.6719 73.5469 9.42188 73.5469C8.10938 73.5469 6.89062 73.2969 5.76562 72.7969C4.67188 72.3281 3.70312 71.6875 2.85938 70.875C2.04688 70.0625 1.40625 69.1094 0.9375 68.0156C0.5 66.8906 0.28125 65.6875 0.28125 64.4062Z" fill="#E66EBA"/>
<path d="M63.7031 59.1562H70.7812L67.5938 48.9375H45.75L42.5625 59.1562H50.0625V72H23.1094V59.1562H28.4062L47.7656 0.9375H66.5625L85.5 59.1562H90.6562V72H63.7031V59.1562ZM49.4531 36.9375H63.7969L56.5781 13.8281L49.4531 36.9375ZM135.469 44.0625C135.469 41.3438 134.75 39.2188 133.312 37.6875C131.875 36.125 129.969 35.3438 127.594 35.3438C125.969 35.3438 124.328 35.7031 122.672 36.4219C121.016 37.1406 119.406 38.4844 117.844 40.4531V59.1562H125.719V72H95.5312V59.1562H102.656V36.2812H95.625V23.4375H117.75V27.7031C119.781 26.1094 122.047 24.8594 124.547 23.9531C127.078 23.0156 129.734 22.5469 132.516 22.5469C138.359 22.5469 142.859 24.1875 146.016 27.4688C149.172 30.7188 150.75 35.4844 150.75 41.7656V59.1562H157.641V72H135.469V44.0625ZM203.906 44.0625C203.906 41.3438 203.188 39.2188 201.75 37.6875C200.312 36.125 198.406 35.3438 196.031 35.3438C194.406 35.3438 192.766 35.7031 191.109 36.4219C189.453 37.1406 187.844 38.4844 186.281 40.4531V59.1562H194.156V72H163.969V59.1562H171.094V36.2812H164.062V23.4375H186.188V27.7031C188.219 26.1094 190.484 24.8594 192.984 23.9531C195.516 23.0156 198.172 22.5469 200.953 22.5469C206.797 22.5469 211.297 24.1875 214.453 27.4688C217.609 30.7188 219.188 35.4844 219.188 41.7656V59.1562H226.078V72H203.906V44.0625ZM262.266 69.375C261.172 70.0625 260.172 70.6562 259.266 71.1562C258.359 71.625 257.453 72 256.547 72.2812C255.641 72.5938 254.703 72.8125 253.734 72.9375C252.766 73.0938 251.703 73.1719 250.547 73.1719C247.641 73.1719 245.031 72.7812 242.719 72C240.438 71.1875 238.5 70.0938 236.906 68.7188C235.344 67.3125 234.141 65.6719 233.297 63.7969C232.453 61.8906 232.031 59.8281 232.031 57.6094C232.031 55.3594 232.453 53.2812 233.297 51.375C234.172 49.4688 235.422 47.8438 237.047 46.5C238.672 45.125 240.656 44.0625 243 43.3125C245.375 42.5312 248.078 42.1406 251.109 42.1406C253.328 42.1406 255.344 42.2656 257.156 42.5156C259 42.7344 260.703 43.0156 262.266 43.3594V41.8594C262.266 40.6406 262.031 39.5938 261.562 38.7188C261.094 37.8125 260.438 37.0781 259.594 36.5156C258.75 35.9219 257.734 35.5 256.547 35.25C255.359 34.9688 254.062 34.8281 252.656 34.8281C249.719 34.8281 247.125 35.125 244.875 35.7188C242.656 36.2812 240.516 37.1094 238.453 38.2031L233.953 29.1094C237.141 26.9219 240.469 25.25 243.938 24.0938C247.438 22.9375 251.141 22.3594 255.047 22.3594C258.078 22.3594 260.875 22.7031 263.438 23.3906C266.031 24.0469 268.25 25.1406 270.094 26.6719C271.938 28.1719 273.375 30.1406 274.406 32.5781C275.469 35.0156 276 37.9844 276 41.4844V59.1562H282.516V72H262.266V69.375ZM251.578 62.1094C253.797 62.1094 255.812 61.75 257.625 61.0312C259.438 60.3125 260.984 59.4375 262.266 58.4062V52.2188H251.016C250.297 52.2188 249.594 52.3281 248.906 52.5469C248.219 52.7656 247.594 53.0781 247.031 53.4844C246.5 53.8906 246.062 54.3906 245.719 54.9844C245.406 55.5781 245.25 56.2656 245.25 57.0469C245.25 58.4844 245.766 59.6875 246.797 60.6562C247.859 61.625 249.453 62.1094 251.578 62.1094Z" fill="white"/>
</svg>
